<?xml version="1.0" standalone="no"?>
 <!DOCTYPE svg PUBLIC "-//W3C//DTD SVG 1.1//EN" 
 "http://www.w3.org/Graphics/SVG/1.1/DTD/svg11.dtd"> 
<svg
  xmlns:svg="http://www.w3.org/2000/svg"
  xmlns="http://www.w3.org/2000/svg"
  xmlns:xlink="http://www.w3.org/1999/xlink"
  version="1.1"
  width="419.9890mm" height="297.0022mm" viewBox="0.0000 0.0000 419.9890 297.0022">
<title>SVG Image created as 150_BH-F_Cu.svg date 2025/10/15 13:43:06 </title>
  <desc>Image generated by PCBNEW </desc>
<g style="fill:#000000; fill-opacity:1.0000;stroke:#000000; stroke-opacity:1.0000;
stroke-linecap:round; stroke-linejoin:round;"
 transform="translate(0 0) scale(1 1)">
<path style="fill:#000000; fill-opacity:1.0000; stroke:none;fill-rule:evenodd;"
d="M 358.7500,156.2500
354.7500,156.2500
354.7500,143.0000
358.7500,143.0000
Z" /> 
<path style="fill:#000000; fill-opacity:1.0000; stroke:none;fill-rule:evenodd;"
d="M 353.2500,156.2500
349.2500,156.2500
349.2500,143.0000
353.2500,143.0000
Z" /> 
<path style="fill:#000000; fill-opacity:1.0000; stroke:none;fill-rule:evenodd;"
d="M 353.2500,115.0000
349.2500,115.0000
349.2500,101.7500
353.2500,101.7500
Z" /> 
<path style="fill:#000000; fill-opacity:1.0000; stroke:none;fill-rule:evenodd;"
d="M 358.7500,115.0000
354.7500,115.0000
354.7500,101.7500
358.7500,101.7500
Z" /> 
<path style="fill:#000000; fill-opacity:1.0000; stroke:none;fill-rule:evenodd;"
d="M 358.7500,77.2500
354.7500,77.2500
354.7500,64.0000
358.7500,64.0000
Z" /> 
<path style="fill:#000000; fill-opacity:1.0000; stroke:none;fill-rule:evenodd;"
d="M 353.2500,77.2500
349.2500,77.2500
349.2500,64.0000
353.2500,64.0000
Z" /> 
</g>
<g style="fill:#000000; fill-opacity:1.0000; stroke:none;">
<circle cx="358.5000" cy="182.0000" r="0.5000" /> 
<path style="fill:#000000; fill-opacity:1.0000; stroke:none;fill-rule:evenodd;"
d="M 351.2250,153.2500
351.1389,153.2329
351.0659,153.1841
351.0171,153.1111
351.0000,153.0250
351.0000,150.9750
351.0171,150.8889
351.0659,150.8159
351.1389,150.7671
351.2250,150.7500
352.2750,150.7500
352.3611,150.7671
352.4341,150.8159
352.4829,150.8889
352.5000,150.9750
352.5000,153.0250
352.4829,153.1111
352.4341,153.1841
352.3611,153.2329
352.2750,153.2500
Z" /> 
<path style="fill:#000000; fill-opacity:1.0000; stroke:none;fill-rule:evenodd;"
d="M 349.7250,148.5000
349.6389,148.4829
349.5659,148.4341
349.5171,148.3611
349.5000,148.2750
349.5000,143.7250
349.5171,143.6389
349.5659,143.5659
349.6389,143.5171
349.7250,143.5000
350.7750,143.5000
350.8611,143.5171
350.9341,143.5659
350.9829,143.6389
351.0000,143.7250
351.0000,148.2750
350.9829,148.3611
350.9341,148.4341
350.8611,148.4829
350.7750,148.5000
Z" /> 
</g>
<g style="fill:#000000; fill-opacity:1.0000; stroke:none;">
<circle cx="50.5000" cy="47.0000" r="0.5000" /> 
<path style="fill:#000000; fill-opacity:1.0000; stroke:none;fill-rule:evenodd;"
d="M 349.9258,107.0000
349.8397,106.9829
349.7667,106.9341
349.7179,106.8611
349.7008,106.7750
349.7008,102.2250
349.7179,102.1389
349.7667,102.0659
349.8397,102.0171
349.9258,102.0000
350.9758,102.0000
351.0619,102.0171
351.1349,102.0659
351.1837,102.1389
351.2008,102.2250
351.2008,106.7750
351.1837,106.8611
351.1349,106.9341
351.0619,106.9829
350.9758,107.0000
Z" /> 
<path style="fill:#000000; fill-opacity:1.0000; stroke:none;fill-rule:evenodd;"
d="M 351.4258,111.7500
351.3397,111.7329
351.2667,111.6841
351.2179,111.6111
351.2008,111.5250
351.2008,109.4750
351.2179,109.3889
351.2667,109.3159
351.3397,109.2671
351.4258,109.2500
352.4758,109.2500
352.5619,109.2671
352.6349,109.3159
352.6837,109.3889
352.7008,109.4750
352.7008,111.5250
352.6837,111.6111
352.6349,111.6841
352.5619,111.7329
352.4758,111.7500
Z" /> 
<path style="fill:#000000; fill-opacity:1.0000; stroke:none;fill-rule:evenodd;"
d="M 349.9258,69.5000
349.8397,69.4829
349.7667,69.4341
349.7179,69.3611
349.7008,69.2750
349.7008,64.7250
349.7179,64.6389
349.7667,64.5659
349.8397,64.5171
349.9258,64.5000
350.9758,64.5000
351.0619,64.5171
351.1349,64.5659
351.1837,64.6389
351.2008,64.7250
351.2008,69.2750
351.1837,69.3611
351.1349,69.4341
351.0619,69.4829
350.9758,69.5000
Z" /> 
<path style="fill:#000000; fill-opacity:1.0000; stroke:none;fill-rule:evenodd;"
d="M 351.4258,74.2500
351.3397,74.2329
351.2667,74.1841
351.2179,74.1111
351.2008,74.0250
351.2008,71.9750
351.2179,71.8889
351.2667,71.8159
351.3397,71.7671
351.4258,71.7500
352.4758,71.7500
352.5619,71.7671
352.6349,71.8159
352.6837,71.8889
352.7008,71.9750
352.7008,74.0250
352.6837,74.1111
352.6349,74.1841
352.5619,74.2329
352.4758,74.2500
Z" /> 
<path style="fill:#000000; fill-opacity:1.0000; stroke:none;fill-rule:evenodd;"
d="M 356.9258,148.5000
356.8397,148.4829
356.7667,148.4341
356.7179,148.3611
356.7008,148.2750
356.7008,143.7250
356.7179,143.6389
356.7667,143.5659
356.8397,143.5171
356.9258,143.5000
357.9758,143.5000
358.0619,143.5171
358.1349,143.5659
358.1837,143.6389
358.2008,143.7250
358.2008,148.2750
358.1837,148.3611
358.1349,148.4341
358.0619,148.4829
357.9758,148.5000
Z" /> 
<path style="fill:#000000; fill-opacity:1.0000; stroke:none;fill-rule:evenodd;"
d="M 355.4258,153.2500
355.3397,153.2329
355.2667,153.1841
355.2179,153.1111
355.2008,153.0250
355.2008,150.9750
355.2179,150.8889
355.2667,150.8159
355.3397,150.7671
355.4258,150.7500
356.4758,150.7500
356.5619,150.7671
356.6349,150.8159
356.6837,150.8889
356.7008,150.9750
356.7008,153.0250
356.6837,153.1111
356.6349,153.1841
356.5619,153.2329
356.4758,153.2500
Z" /> 
<path style="fill:#000000; fill-opacity:1.0000; stroke:none;fill-rule:evenodd;"
d="M 356.9258,107.0000
356.8397,106.9829
356.7667,106.9341
356.7179,106.8611
356.7008,106.7750
356.7008,102.2250
356.7179,102.1389
356.7667,102.0659
356.8397,102.0171
356.9258,102.0000
357.9758,102.0000
358.0619,102.0171
358.1349,102.0659
358.1837,102.1389
358.2008,102.2250
358.2008,106.7750
358.1837,106.8611
358.1349,106.9341
358.0619,106.9829
357.9758,107.0000
Z" /> 
<path style="fill:#000000; fill-opacity:1.0000; stroke:none;fill-rule:evenodd;"
d="M 355.4258,111.7500
355.3397,111.7329
355.2667,111.6841
355.2179,111.6111
355.2008,111.5250
355.2008,109.4750
355.2179,109.3889
355.2667,109.3159
355.3397,109.2671
355.4258,109.2500
356.4758,109.2500
356.5619,109.2671
356.6349,109.3159
356.6837,109.3889
356.7008,109.4750
356.7008,111.5250
356.6837,111.6111
356.6349,111.6841
356.5619,111.7329
356.4758,111.7500
Z" /> 
<path style="fill:#000000; fill-opacity:1.0000; stroke:none;fill-rule:evenodd;"
d="M 356.9258,69.5000
356.8397,69.4829
356.7667,69.4341
356.7179,69.3611
356.7008,69.2750
356.7008,64.7250
356.7179,64.6389
356.7667,64.5659
356.8397,64.5171
356.9258,64.5000
357.9758,64.5000
358.0619,64.5171
358.1349,64.5659
358.1837,64.6389
358.2008,64.7250
358.2008,69.2750
358.1837,69.3611
358.1349,69.4341
358.0619,69.4829
357.9758,69.5000
Z" /> 
<path style="fill:#000000; fill-opacity:1.0000; stroke:none;fill-rule:evenodd;"
d="M 355.4258,74.2500
355.3397,74.2329
355.2667,74.1841
355.2179,74.1111
355.2008,74.0250
355.2008,71.9750
355.2179,71.8889
355.2667,71.8159
355.3397,71.7671
355.4258,71.7500
356.4758,71.7500
356.5619,71.7671
356.6349,71.8159
356.6837,71.8889
356.7008,71.9750
356.7008,74.0250
356.6837,74.1111
356.6349,74.1841
356.5619,74.2329
356.4758,74.2500
Z" /> 
</g> 
</svg>
