<?xml version="1.0" standalone="no"?>
 <!DOCTYPE svg PUBLIC "-//W3C//DTD SVG 1.1//EN" 
 "http://www.w3.org/Graphics/SVG/1.1/DTD/svg11.dtd"> 
<svg
  xmlns:svg="http://www.w3.org/2000/svg"
  xmlns="http://www.w3.org/2000/svg"
  xmlns:xlink="http://www.w3.org/1999/xlink"
  version="1.1"
  width="419.9890mm" height="297.0022mm" viewBox="0.0000 0.0000 419.9890 297.0022">
<title>SVG Image created as 150_BH-User_2.svg date 2025/10/15 13:43:06 </title>
  <desc>Image generated by PCBNEW </desc>
<g style="fill:#000000; fill-opacity:1.0000;stroke:#000000; stroke-opacity:1.0000;
stroke-linecap:round; stroke-linejoin:round;"
 transform="translate(0 0) scale(1 1)">
</g>
<g style="fill:none; 
stroke:#000000; stroke-width:0.1000; stroke-opacity:1; 
stroke-linecap:round; stroke-linejoin:round;">
<path d="M278.0000 42.5000
L278.0000 184.5000
" />
<path d="M190.0000 42.5000
L190.0000 184.5000
" />
<path d="M103.0000 42.5000
L103.0000 184.5000
" />
<path d="M45.0000 132.5000
L362.0000 132.5000
" />
<path d="M45.0000 87.5000
L362.0000 87.5000
" />
</g>
<g style="fill:none; 
stroke:#000000; stroke-width:0.1500; stroke-opacity:1; 
stroke-linecap:round; stroke-linejoin:round;">
<text x="161.5000" y="21.3500"
textLength="3.1071" font-size="1.3333" lengthAdjust="spacingAndGlyphs"
text-anchor="middle" opacity="0" stroke-opacity="0">233</text>
<g class="stroked-text"><desc>233</desc>
<path d="M160.2619 20.4001
L160.3095 20.3524
" />
<path d="M160.3095 20.3524
L160.4048 20.3048
" />
<path d="M160.4048 20.3048
L160.6429 20.3048
" />
<path d="M160.6429 20.3048
L160.7381 20.3524
" />
<path d="M160.7381 20.3524
L160.7857 20.4001
" />
<path d="M160.7857 20.4001
L160.8333 20.4953
" />
<path d="M160.8333 20.4953
L160.8333 20.5905
" />
<path d="M160.8333 20.5905
L160.7857 20.7334
" />
<path d="M160.7857 20.7334
L160.2143 21.3048
" />
<path d="M160.2143 21.3048
L160.8333 21.3048
" />
<path d="M161.1667 20.3048
L161.7857 20.3048
" />
<path d="M161.7857 20.3048
L161.4524 20.6858
" />
<path d="M161.4524 20.6858
L161.5952 20.6858
" />
<path d="M161.5952 20.6858
L161.6905 20.7334
" />
<path d="M161.6905 20.7334
L161.7381 20.7810
" />
<path d="M161.7381 20.7810
L161.7857 20.8762
" />
<path d="M161.7857 20.8762
L161.7857 21.1143
" />
<path d="M161.7857 21.1143
L161.7381 21.2096
" />
<path d="M161.7381 21.2096
L161.6905 21.2572
" />
<path d="M161.6905 21.2572
L161.5952 21.3048
" />
<path d="M161.5952 21.3048
L161.3095 21.3048
" />
<path d="M161.3095 21.3048
L161.2143 21.2572
" />
<path d="M161.2143 21.2572
L161.1667 21.2096
" />
<path d="M162.1190 20.3048
L162.7381 20.3048
" />
<path d="M162.7381 20.3048
L162.4048 20.6858
" />
<path d="M162.4048 20.6858
L162.5476 20.6858
" />
<path d="M162.5476 20.6858
L162.6429 20.7334
" />
<path d="M162.6429 20.7334
L162.6905 20.7810
" />
<path d="M162.6905 20.7810
L162.7381 20.8762
" />
<path d="M162.7381 20.8762
L162.7381 21.1143
" />
<path d="M162.7381 21.1143
L162.6905 21.2096
" />
<path d="M162.6905 21.2096
L162.6429 21.2572
" />
<path d="M162.6429 21.2572
L162.5476 21.3048
" />
<path d="M162.5476 21.3048
L162.2619 21.3048
" />
<path d="M162.2619 21.3048
L162.1667 21.2572
" />
<path d="M162.1667 21.2572
L162.1190 21.2096
" />
</g></g>
<g style="fill:none; 
stroke:#000000; stroke-width:0.1000; stroke-opacity:1; 
stroke-linecap:round; stroke-linejoin:round;">
<path d="M45.0000 42.0000
L45.0000 21.4136
" />
<path d="M278.0000 21.4136
L278.0000 42.0000
" />
<path d="M45.0000 22.0000
L278.0000 22.0000
" />
<path d="M45.0000 22.0000
L46.1265 21.4136
" />
<path d="M45.0000 22.0000
L46.1265 22.5864
" />
<path d="M278.0000 22.0000
L276.8735 22.5864
" />
<path d="M278.0000 22.0000
L276.8735 21.4136
" />
</g>
<g style="fill:none; 
stroke:#000000; stroke-width:0.1500; stroke-opacity:1; 
stroke-linecap:round; stroke-linejoin:round;">
<g transform="rotate(-90.000000 27.8008 65.0000)">
<text x="27.8008" y="65.5000"
textLength="2.1548" font-size="1.3333" lengthAdjust="spacingAndGlyphs"
text-anchor="middle" opacity="0" stroke-opacity="0">45</text>
</g>
<g class="stroked-text"><desc>45</desc>
<path d="M27.5890 65.2857
L28.2556 65.2857
" />
<path d="M27.2080 65.5238
L27.9223 65.7619
" />
<path d="M27.9223 65.7619
L27.9223 65.1429
" />
<path d="M27.2556 64.2857
L27.2556 64.7619
" />
<path d="M27.2556 64.7619
L27.7318 64.8095
" />
<path d="M27.7318 64.8095
L27.6842 64.7619
" />
<path d="M27.6842 64.7619
L27.6366 64.6667
" />
<path d="M27.6366 64.6667
L27.6366 64.4286
" />
<path d="M27.6366 64.4286
L27.6842 64.3333
" />
<path d="M27.6842 64.3333
L27.7318 64.2857
" />
<path d="M27.7318 64.2857
L27.8270 64.2381
" />
<path d="M27.8270 64.2381
L28.0651 64.2381
" />
<path d="M28.0651 64.2381
L28.1604 64.2857
" />
<path d="M28.1604 64.2857
L28.2080 64.3333
" />
<path d="M28.2080 64.3333
L28.2556 64.4286
" />
<path d="M28.2556 64.4286
L28.2556 64.6667
" />
<path d="M28.2556 64.6667
L28.2080 64.7619
" />
<path d="M28.2080 64.7619
L28.1604 64.8095
" />
</g></g>
<g style="fill:none; 
stroke:#000000; stroke-width:0.1000; stroke-opacity:1; 
stroke-linecap:round; stroke-linejoin:round;">
<path d="M32.9508 42.5000
L28.3644 42.5000
" />
<path d="M28.3644 87.5000
L32.9508 87.5000
" />
<path d="M28.9508 42.5000
L28.9508 87.5000
" />
<path d="M28.9508 42.5000
L29.5372 43.6265
" />
<path d="M28.9508 42.5000
L28.3644 43.6265
" />
<path d="M28.9508 87.5000
L28.3644 86.3735
" />
<path d="M28.9508 87.5000
L29.5372 86.3735
" />
</g>
<g style="fill:none; 
stroke:#000000; stroke-width:0.1500; stroke-opacity:1; 
stroke-linecap:round; stroke-linejoin:round;">
<g transform="rotate(-90.000000 23.3500 102.5000)">
<text x="23.3500" y="103.0000"
textLength="3.1071" font-size="1.3333" lengthAdjust="spacingAndGlyphs"
text-anchor="middle" opacity="0" stroke-opacity="0">120</text>
</g>
<g class="stroked-text"><desc>120</desc>
<path d="M23.8048 103.1667
L23.8048 103.7381
" />
<path d="M23.8048 103.4524
L22.8048 103.4524
" />
<path d="M22.8048 103.4524
L22.9477 103.5476
" />
<path d="M22.9477 103.5476
L23.0429 103.6429
" />
<path d="M23.0429 103.6429
L23.0905 103.7381
" />
<path d="M22.9001 102.7857
L22.8524 102.7381
" />
<path d="M22.8524 102.7381
L22.8048 102.6429
" />
<path d="M22.8048 102.6429
L22.8048 102.4048
" />
<path d="M22.8048 102.4048
L22.8524 102.3095
" />
<path d="M22.8524 102.3095
L22.9001 102.2619
" />
<path d="M22.9001 102.2619
L22.9953 102.2143
" />
<path d="M22.9953 102.2143
L23.0905 102.2143
" />
<path d="M23.0905 102.2143
L23.2334 102.2619
" />
<path d="M23.2334 102.2619
L23.8048 102.8333
" />
<path d="M23.8048 102.8333
L23.8048 102.2143
" />
<path d="M22.8048 101.5952
L22.8048 101.5000
" />
<path d="M22.8048 101.5000
L22.8524 101.4048
" />
<path d="M22.8524 101.4048
L22.9001 101.3571
" />
<path d="M22.9001 101.3571
L22.9953 101.3095
" />
<path d="M22.9953 101.3095
L23.1858 101.2619
" />
<path d="M23.1858 101.2619
L23.4239 101.2619
" />
<path d="M23.4239 101.2619
L23.6143 101.3095
" />
<path d="M23.6143 101.3095
L23.7096 101.3571
" />
<path d="M23.7096 101.3571
L23.7572 101.4048
" />
<path d="M23.7572 101.4048
L23.8048 101.5000
" />
<path d="M23.8048 101.5000
L23.8048 101.5952
" />
<path d="M23.8048 101.5952
L23.7572 101.6905
" />
<path d="M23.7572 101.6905
L23.7096 101.7381
" />
<path d="M23.7096 101.7381
L23.6143 101.7857
" />
<path d="M23.6143 101.7857
L23.4239 101.8333
" />
<path d="M23.4239 101.8333
L23.1858 101.8333
" />
<path d="M23.1858 101.8333
L22.9953 101.7857
" />
<path d="M22.9953 101.7857
L22.9001 101.7381
" />
<path d="M22.9001 101.7381
L22.8524 101.6905
" />
<path d="M22.8524 101.6905
L22.8048 101.5952
" />
</g></g>
<g style="fill:none; 
stroke:#000000; stroke-width:0.1000; stroke-opacity:1; 
stroke-linecap:round; stroke-linejoin:round;">
<path d="M32.9508 42.5000
L23.9136 42.5000
" />
<path d="M23.9136 162.5000
L28.4508 162.5000
" />
<path d="M24.5000 42.5000
L24.5000 162.5000
" />
<path d="M24.5000 42.5000
L25.0864 43.6265
" />
<path d="M24.5000 42.5000
L23.9136 43.6265
" />
<path d="M24.5000 162.5000
L23.9136 161.3735
" />
<path d="M24.5000 162.5000
L25.0864 161.3735
" />
</g>
<g style="fill:none; 
stroke:#000000; stroke-width:0.1500; stroke-opacity:1; 
stroke-linecap:round; stroke-linejoin:round;">
<g transform="rotate(-90.000000 29.8008 50.0000)">
<text x="29.8008" y="50.5000"
textLength="2.1548" font-size="1.3333" lengthAdjust="spacingAndGlyphs"
text-anchor="middle" opacity="0" stroke-opacity="0">15</text>
</g>
<g class="stroked-text"><desc>15</desc>
<path d="M30.2556 50.1905
L30.2556 50.7619
" />
<path d="M30.2556 50.4762
L29.2556 50.4762
" />
<path d="M29.2556 50.4762
L29.3985 50.5714
" />
<path d="M29.3985 50.5714
L29.4937 50.6667
" />
<path d="M29.4937 50.6667
L29.5413 50.7619
" />
<path d="M29.2556 49.2857
L29.2556 49.7619
" />
<path d="M29.2556 49.7619
L29.7318 49.8095
" />
<path d="M29.7318 49.8095
L29.6842 49.7619
" />
<path d="M29.6842 49.7619
L29.6366 49.6667
" />
<path d="M29.6366 49.6667
L29.6366 49.4286
" />
<path d="M29.6366 49.4286
L29.6842 49.3333
" />
<path d="M29.6842 49.3333
L29.7318 49.2857
" />
<path d="M29.7318 49.2857
L29.8270 49.2381
" />
<path d="M29.8270 49.2381
L30.0651 49.2381
" />
<path d="M30.0651 49.2381
L30.1604 49.2857
" />
<path d="M30.1604 49.2857
L30.2080 49.3333
" />
<path d="M30.2080 49.3333
L30.2556 49.4286
" />
<path d="M30.2556 49.4286
L30.2556 49.6667
" />
<path d="M30.2556 49.6667
L30.2080 49.7619
" />
<path d="M30.2080 49.7619
L30.1604 49.8095
" />
</g></g>
<g style="fill:none; 
stroke:#000000; stroke-width:0.1000; stroke-opacity:1; 
stroke-linecap:round; stroke-linejoin:round;">
<path d="M32.9508 42.5000
L30.3644 42.5000
" />
<path d="M30.3644 57.5000
L32.9508 57.5000
" />
<path d="M30.9508 42.5000
L30.9508 57.5000
" />
<path d="M30.9508 42.5000
L31.5372 43.6265
" />
<path d="M30.9508 42.5000
L30.3644 43.6265
" />
<path d="M30.9508 57.5000
L30.3644 56.3735
" />
<path d="M30.9508 57.5000
L31.5372 56.3735
" />
</g>
<g style="fill:none; 
stroke:#000000; stroke-width:0.1500; stroke-opacity:1; 
stroke-linecap:round; stroke-linejoin:round;">
<text x="74.0000" y="25.3500"
textLength="2.1548" font-size="1.3333" lengthAdjust="spacingAndGlyphs"
text-anchor="middle" opacity="0" stroke-opacity="0">58</text>
<g class="stroked-text"><desc>58</desc>
<path d="M73.7619 24.3048
L73.2857 24.3048
" />
<path d="M73.2857 24.3048
L73.2381 24.7810
" />
<path d="M73.2381 24.7810
L73.2857 24.7334
" />
<path d="M73.2857 24.7334
L73.3810 24.6858
" />
<path d="M73.3810 24.6858
L73.6190 24.6858
" />
<path d="M73.6190 24.6858
L73.7143 24.7334
" />
<path d="M73.7143 24.7334
L73.7619 24.7810
" />
<path d="M73.7619 24.7810
L73.8095 24.8762
" />
<path d="M73.8095 24.8762
L73.8095 25.1143
" />
<path d="M73.8095 25.1143
L73.7619 25.2096
" />
<path d="M73.7619 25.2096
L73.7143 25.2572
" />
<path d="M73.7143 25.2572
L73.6190 25.3048
" />
<path d="M73.6190 25.3048
L73.3810 25.3048
" />
<path d="M73.3810 25.3048
L73.2857 25.2572
" />
<path d="M73.2857 25.2572
L73.2381 25.2096
" />
<path d="M74.3810 24.7334
L74.2857 24.6858
" />
<path d="M74.2857 24.6858
L74.2381 24.6382
" />
<path d="M74.2381 24.6382
L74.1905 24.5429
" />
<path d="M74.1905 24.5429
L74.1905 24.4953
" />
<path d="M74.1905 24.4953
L74.2381 24.4001
" />
<path d="M74.2381 24.4001
L74.2857 24.3524
" />
<path d="M74.2857 24.3524
L74.3810 24.3048
" />
<path d="M74.3810 24.3048
L74.5714 24.3048
" />
<path d="M74.5714 24.3048
L74.6667 24.3524
" />
<path d="M74.6667 24.3524
L74.7143 24.4001
" />
<path d="M74.7143 24.4001
L74.7619 24.4953
" />
<path d="M74.7619 24.4953
L74.7619 24.5429
" />
<path d="M74.7619 24.5429
L74.7143 24.6382
" />
<path d="M74.7143 24.6382
L74.6667 24.6858
" />
<path d="M74.6667 24.6858
L74.5714 24.7334
" />
<path d="M74.5714 24.7334
L74.3810 24.7334
" />
<path d="M74.3810 24.7334
L74.2857 24.7810
" />
<path d="M74.2857 24.7810
L74.2381 24.8286
" />
<path d="M74.2381 24.8286
L74.1905 24.9239
" />
<path d="M74.1905 24.9239
L74.1905 25.1143
" />
<path d="M74.1905 25.1143
L74.2381 25.2096
" />
<path d="M74.2381 25.2096
L74.2857 25.2572
" />
<path d="M74.2857 25.2572
L74.3810 25.3048
" />
<path d="M74.3810 25.3048
L74.5714 25.3048
" />
<path d="M74.5714 25.3048
L74.6667 25.2572
" />
<path d="M74.6667 25.2572
L74.7143 25.2096
" />
<path d="M74.7143 25.2096
L74.7619 25.1143
" />
<path d="M74.7619 25.1143
L74.7619 24.9239
" />
<path d="M74.7619 24.9239
L74.7143 24.8286
" />
<path d="M74.7143 24.8286
L74.6667 24.7810
" />
<path d="M74.6667 24.7810
L74.5714 24.7334
" />
</g></g>
<g style="fill:none; 
stroke:#000000; stroke-width:0.1000; stroke-opacity:1; 
stroke-linecap:round; stroke-linejoin:round;">
<path d="M45.0000 42.0000
L45.0000 25.4136
" />
<path d="M103.0000 25.4136
L103.0000 42.0000
" />
<path d="M45.0000 26.0000
L103.0000 26.0000
" />
<path d="M45.0000 26.0000
L46.1265 25.4136
" />
<path d="M45.0000 26.0000
L46.1265 26.5864
" />
<path d="M103.0000 26.0000
L101.8735 26.5864
" />
<path d="M103.0000 26.0000
L101.8735 25.4136
" />
</g>
<g style="fill:none; 
stroke:#000000; stroke-width:0.1500; stroke-opacity:1; 
stroke-linecap:round; stroke-linejoin:round;">
<g transform="rotate(-90.000000 25.8008 87.5000)">
<text x="25.8008" y="88.0000"
textLength="2.1548" font-size="1.3333" lengthAdjust="spacingAndGlyphs"
text-anchor="middle" opacity="0" stroke-opacity="0">90</text>
</g>
<g class="stroked-text"><desc>90</desc>
<path d="M26.2556 88.1667
L26.2556 87.9762
" />
<path d="M26.2556 87.9762
L26.2080 87.8810
" />
<path d="M26.2080 87.8810
L26.1604 87.8333
" />
<path d="M26.1604 87.8333
L26.0175 87.7381
" />
<path d="M26.0175 87.7381
L25.8270 87.6905
" />
<path d="M25.8270 87.6905
L25.4461 87.6905
" />
<path d="M25.4461 87.6905
L25.3509 87.7381
" />
<path d="M25.3509 87.7381
L25.3032 87.7857
" />
<path d="M25.3032 87.7857
L25.2556 87.8810
" />
<path d="M25.2556 87.8810
L25.2556 88.0714
" />
<path d="M25.2556 88.0714
L25.3032 88.1667
" />
<path d="M25.3032 88.1667
L25.3509 88.2143
" />
<path d="M25.3509 88.2143
L25.4461 88.2619
" />
<path d="M25.4461 88.2619
L25.6842 88.2619
" />
<path d="M25.6842 88.2619
L25.7794 88.2143
" />
<path d="M25.7794 88.2143
L25.8270 88.1667
" />
<path d="M25.8270 88.1667
L25.8747 88.0714
" />
<path d="M25.8747 88.0714
L25.8747 87.8810
" />
<path d="M25.8747 87.8810
L25.8270 87.7857
" />
<path d="M25.8270 87.7857
L25.7794 87.7381
" />
<path d="M25.7794 87.7381
L25.6842 87.6905
" />
<path d="M25.2556 87.0714
L25.2556 86.9762
" />
<path d="M25.2556 86.9762
L25.3032 86.8810
" />
<path d="M25.3032 86.8810
L25.3509 86.8333
" />
<path d="M25.3509 86.8333
L25.4461 86.7857
" />
<path d="M25.4461 86.7857
L25.6366 86.7381
" />
<path d="M25.6366 86.7381
L25.8747 86.7381
" />
<path d="M25.8747 86.7381
L26.0651 86.7857
" />
<path d="M26.0651 86.7857
L26.1604 86.8333
" />
<path d="M26.1604 86.8333
L26.2080 86.8810
" />
<path d="M26.2080 86.8810
L26.2556 86.9762
" />
<path d="M26.2556 86.9762
L26.2556 87.0714
" />
<path d="M26.2556 87.0714
L26.2080 87.1667
" />
<path d="M26.2080 87.1667
L26.1604 87.2143
" />
<path d="M26.1604 87.2143
L26.0651 87.2619
" />
<path d="M26.0651 87.2619
L25.8747 87.3095
" />
<path d="M25.8747 87.3095
L25.6366 87.3095
" />
<path d="M25.6366 87.3095
L25.4461 87.2619
" />
<path d="M25.4461 87.2619
L25.3509 87.2143
" />
<path d="M25.3509 87.2143
L25.3032 87.1667
" />
<path d="M25.3032 87.1667
L25.2556 87.0714
" />
</g></g>
<g style="fill:none; 
stroke:#000000; stroke-width:0.1000; stroke-opacity:1; 
stroke-linecap:round; stroke-linejoin:round;">
<path d="M32.9508 42.5000
L26.3644 42.5000
" />
<path d="M26.3644 132.5000
L32.9508 132.5000
" />
<path d="M26.9508 42.5000
L26.9508 132.5000
" />
<path d="M26.9508 42.5000
L27.5372 43.6265
" />
<path d="M26.9508 42.5000
L26.3644 43.6265
" />
<path d="M26.9508 132.5000
L26.3644 131.3735
" />
<path d="M26.9508 132.5000
L27.5372 131.3735
" />
</g>
<g style="fill:none; 
stroke:#000000; stroke-width:0.1500; stroke-opacity:1; 
stroke-linecap:round; stroke-linejoin:round;">
<text x="117.5000" y="23.3500"
textLength="3.1071" font-size="1.3333" lengthAdjust="spacingAndGlyphs"
text-anchor="middle" opacity="0" stroke-opacity="0">145</text>
<g class="stroked-text"><desc>145</desc>
<path d="M116.8333 23.3048
L116.2619 23.3048
" />
<path d="M116.5476 23.3048
L116.5476 22.3048
" />
<path d="M116.5476 22.3048
L116.4524 22.4477
" />
<path d="M116.4524 22.4477
L116.3571 22.5429
" />
<path d="M116.3571 22.5429
L116.2619 22.5905
" />
<path d="M117.6905 22.6382
L117.6905 23.3048
" />
<path d="M117.4524 22.2572
L117.2143 22.9715
" />
<path d="M117.2143 22.9715
L117.8333 22.9715
" />
<path d="M118.6905 22.3048
L118.2143 22.3048
" />
<path d="M118.2143 22.3048
L118.1667 22.7810
" />
<path d="M118.1667 22.7810
L118.2143 22.7334
" />
<path d="M118.2143 22.7334
L118.3095 22.6858
" />
<path d="M118.3095 22.6858
L118.5476 22.6858
" />
<path d="M118.5476 22.6858
L118.6429 22.7334
" />
<path d="M118.6429 22.7334
L118.6905 22.7810
" />
<path d="M118.6905 22.7810
L118.7381 22.8762
" />
<path d="M118.7381 22.8762
L118.7381 23.1143
" />
<path d="M118.7381 23.1143
L118.6905 23.2096
" />
<path d="M118.6905 23.2096
L118.6429 23.2572
" />
<path d="M118.6429 23.2572
L118.5476 23.3048
" />
<path d="M118.5476 23.3048
L118.3095 23.3048
" />
<path d="M118.3095 23.3048
L118.2143 23.2572
" />
<path d="M118.2143 23.2572
L118.1667 23.2096
" />
</g></g>
<g style="fill:none; 
stroke:#000000; stroke-width:0.1000; stroke-opacity:1; 
stroke-linecap:round; stroke-linejoin:round;">
<path d="M45.0000 42.0000
L45.0000 23.4136
" />
<path d="M190.0000 23.4136
L190.0000 42.0000
" />
<path d="M45.0000 24.0000
L190.0000 24.0000
" />
<path d="M45.0000 24.0000
L46.1265 23.4136
" />
<path d="M45.0000 24.0000
L46.1265 24.5864
" />
<path d="M190.0000 24.0000
L188.8735 24.5864
" />
<path d="M190.0000 24.0000
L188.8735 23.4136
" />
<path d="M45.0000 162.5000
L362.0000 162.5000
" />
<path d="M45.0000 57.5000
L362.0000 57.5000
" />
</g> 
</svg>
