<?xml version="1.0" standalone="no"?>
 <!DOCTYPE svg PUBLIC "-//W3C//DTD SVG 1.1//EN" 
 "http://www.w3.org/Graphics/SVG/1.1/DTD/svg11.dtd"> 
<svg
  xmlns:svg="http://www.w3.org/2000/svg"
  xmlns="http://www.w3.org/2000/svg"
  xmlns:xlink="http://www.w3.org/1999/xlink"
  version="1.1"
  width="419.9890mm" height="297.0022mm" viewBox="0.0000 0.0000 419.9890 297.0022">
<title>SVG Image created as 150_BH-User_4.svg date 2025/10/15 13:43:06 </title>
  <desc>Image generated by PCBNEW </desc>
<g style="fill:#000000; fill-opacity:1.0000;stroke:#000000; stroke-opacity:1.0000;
stroke-linecap:round; stroke-linejoin:round;"
 transform="translate(0 0) scale(1 1)">
</g>
<g style="fill:none; 
stroke:#000000; stroke-width:0.1500; stroke-opacity:1; 
stroke-linecap:round; stroke-linejoin:round;">
<g transform="rotate(-90.000000 21.6000 57.5000)">
<text x="21.6000" y="58.0000"
textLength="2.1548" font-size="1.3333" lengthAdjust="spacingAndGlyphs"
text-anchor="middle" opacity="0" stroke-opacity="0">30</text>
</g>
<g class="stroked-text"><desc>30</desc>
<path d="M21.0548 58.3095
L21.0548 57.6905
" />
<path d="M21.0548 57.6905
L21.4358 58.0238
" />
<path d="M21.4358 58.0238
L21.4358 57.8810
" />
<path d="M21.4358 57.8810
L21.4834 57.7857
" />
<path d="M21.4834 57.7857
L21.5310 57.7381
" />
<path d="M21.5310 57.7381
L21.6262 57.6905
" />
<path d="M21.6262 57.6905
L21.8643 57.6905
" />
<path d="M21.8643 57.6905
L21.9596 57.7381
" />
<path d="M21.9596 57.7381
L22.0072 57.7857
" />
<path d="M22.0072 57.7857
L22.0548 57.8810
" />
<path d="M22.0548 57.8810
L22.0548 58.1667
" />
<path d="M22.0548 58.1667
L22.0072 58.2619
" />
<path d="M22.0072 58.2619
L21.9596 58.3095
" />
<path d="M21.0548 57.0714
L21.0548 56.9762
" />
<path d="M21.0548 56.9762
L21.1024 56.8810
" />
<path d="M21.1024 56.8810
L21.1501 56.8333
" />
<path d="M21.1501 56.8333
L21.2453 56.7857
" />
<path d="M21.2453 56.7857
L21.4358 56.7381
" />
<path d="M21.4358 56.7381
L21.6739 56.7381
" />
<path d="M21.6739 56.7381
L21.8643 56.7857
" />
<path d="M21.8643 56.7857
L21.9596 56.8333
" />
<path d="M21.9596 56.8333
L22.0072 56.8810
" />
<path d="M22.0072 56.8810
L22.0548 56.9762
" />
<path d="M22.0548 56.9762
L22.0548 57.0714
" />
<path d="M22.0548 57.0714
L22.0072 57.1667
" />
<path d="M22.0072 57.1667
L21.9596 57.2143
" />
<path d="M21.9596 57.2143
L21.8643 57.2619
" />
<path d="M21.8643 57.2619
L21.6739 57.3095
" />
<path d="M21.6739 57.3095
L21.4358 57.3095
" />
<path d="M21.4358 57.3095
L21.2453 57.2619
" />
<path d="M21.2453 57.2619
L21.1501 57.2143
" />
<path d="M21.1501 57.2143
L21.1024 57.1667
" />
<path d="M21.1024 57.1667
L21.0548 57.0714
" />
</g></g>
<g style="fill:none; 
stroke:#000000; stroke-width:0.1000; stroke-opacity:1; 
stroke-linecap:round; stroke-linejoin:round;">
<path d="M44.4508 42.5000
L22.1636 42.5000
" />
<path d="M22.1636 72.5000
L44.4508 72.5000
" />
<path d="M22.7500 42.5000
L22.7500 72.5000
" />
<path d="M22.7500 42.5000
L23.3364 43.6265
" />
<path d="M22.7500 42.5000
L22.1636 43.6265
" />
<path d="M22.7500 72.5000
L22.1636 71.3735
" />
<path d="M22.7500 72.5000
L23.3364 71.3735
" />
<path d="M145.0000 42.5000
L145.0000 184.5000
" />
<path d="M60.0000 42.5000
L60.0000 184.5000
" />
<path d="M165.0000 42.5000
L165.0000 184.5000
" />
<path d="M45.0000 72.5000
L362.0000 72.5000
" />
<path d="M322.0000 42.5000
L322.0000 184.5000
" />
<path d="M45.0000 147.5000
L362.0000 147.5000
" />
<path d="M235.0000 42.5000
L235.0000 184.5000
" />
</g>
<g style="fill:none; 
stroke:#000000; stroke-width:0.1500; stroke-opacity:1; 
stroke-linecap:round; stroke-linejoin:round;">
<text x="95.0000" y="34.3500"
textLength="3.1071" font-size="1.3333" lengthAdjust="spacingAndGlyphs"
text-anchor="middle" opacity="0" stroke-opacity="0">100</text>
<g class="stroked-text"><desc>100</desc>
<path d="M94.3333 34.3048
L93.7619 34.3048
" />
<path d="M94.0476 34.3048
L94.0476 33.3048
" />
<path d="M94.0476 33.3048
L93.9524 33.4477
" />
<path d="M93.9524 33.4477
L93.8571 33.5429
" />
<path d="M93.8571 33.5429
L93.7619 33.5905
" />
<path d="M94.9524 33.3048
L95.0476 33.3048
" />
<path d="M95.0476 33.3048
L95.1429 33.3524
" />
<path d="M95.1429 33.3524
L95.1905 33.4001
" />
<path d="M95.1905 33.4001
L95.2381 33.4953
" />
<path d="M95.2381 33.4953
L95.2857 33.6858
" />
<path d="M95.2857 33.6858
L95.2857 33.9239
" />
<path d="M95.2857 33.9239
L95.2381 34.1143
" />
<path d="M95.2381 34.1143
L95.1905 34.2096
" />
<path d="M95.1905 34.2096
L95.1429 34.2572
" />
<path d="M95.1429 34.2572
L95.0476 34.3048
" />
<path d="M95.0476 34.3048
L94.9524 34.3048
" />
<path d="M94.9524 34.3048
L94.8571 34.2572
" />
<path d="M94.8571 34.2572
L94.8095 34.2096
" />
<path d="M94.8095 34.2096
L94.7619 34.1143
" />
<path d="M94.7619 34.1143
L94.7143 33.9239
" />
<path d="M94.7143 33.9239
L94.7143 33.6858
" />
<path d="M94.7143 33.6858
L94.7619 33.4953
" />
<path d="M94.7619 33.4953
L94.8095 33.4001
" />
<path d="M94.8095 33.4001
L94.8571 33.3524
" />
<path d="M94.8571 33.3524
L94.9524 33.3048
" />
<path d="M95.9048 33.3048
L96.0000 33.3048
" />
<path d="M96.0000 33.3048
L96.0952 33.3524
" />
<path d="M96.0952 33.3524
L96.1429 33.4001
" />
<path d="M96.1429 33.4001
L96.1905 33.4953
" />
<path d="M96.1905 33.4953
L96.2381 33.6858
" />
<path d="M96.2381 33.6858
L96.2381 33.9239
" />
<path d="M96.2381 33.9239
L96.1905 34.1143
" />
<path d="M96.1905 34.1143
L96.1429 34.2096
" />
<path d="M96.1429 34.2096
L96.0952 34.2572
" />
<path d="M96.0952 34.2572
L96.0000 34.3048
" />
<path d="M96.0000 34.3048
L95.9048 34.3048
" />
<path d="M95.9048 34.3048
L95.8095 34.2572
" />
<path d="M95.8095 34.2572
L95.7619 34.2096
" />
<path d="M95.7619 34.2096
L95.7143 34.1143
" />
<path d="M95.7143 34.1143
L95.6667 33.9239
" />
<path d="M95.6667 33.9239
L95.6667 33.6858
" />
<path d="M95.6667 33.6858
L95.7143 33.4953
" />
<path d="M95.7143 33.4953
L95.7619 33.4001
" />
<path d="M95.7619 33.4001
L95.8095 33.3524
" />
<path d="M95.8095 33.3524
L95.9048 33.3048
" />
</g></g>
<g style="fill:none; 
stroke:#000000; stroke-width:0.1000; stroke-opacity:1; 
stroke-linecap:round; stroke-linejoin:round;">
<path d="M45.0000 42.0000
L45.0000 34.4136
" />
<path d="M145.0000 34.4136
L145.0000 42.0000
" />
<path d="M45.0000 35.0000
L145.0000 35.0000
" />
<path d="M45.0000 35.0000
L46.1265 34.4136
" />
<path d="M45.0000 35.0000
L46.1265 35.5864
" />
<path d="M145.0000 35.0000
L143.8735 35.5864
" />
<path d="M145.0000 35.0000
L143.8735 34.4136
" />
</g>
<g style="fill:none; 
stroke:#000000; stroke-width:0.1500; stroke-opacity:1; 
stroke-linecap:round; stroke-linejoin:round;">
<text x="183.5000" y="26.6000"
textLength="3.1071" font-size="1.3333" lengthAdjust="spacingAndGlyphs"
text-anchor="middle" opacity="0" stroke-opacity="0">277</text>
<g class="stroked-text"><desc>277</desc>
<path d="M182.2619 25.6501
L182.3095 25.6024
" />
<path d="M182.3095 25.6024
L182.4048 25.5548
" />
<path d="M182.4048 25.5548
L182.6429 25.5548
" />
<path d="M182.6429 25.5548
L182.7381 25.6024
" />
<path d="M182.7381 25.6024
L182.7857 25.6501
" />
<path d="M182.7857 25.6501
L182.8333 25.7453
" />
<path d="M182.8333 25.7453
L182.8333 25.8405
" />
<path d="M182.8333 25.8405
L182.7857 25.9834
" />
<path d="M182.7857 25.9834
L182.2143 26.5548
" />
<path d="M182.2143 26.5548
L182.8333 26.5548
" />
<path d="M183.1667 25.5548
L183.8333 25.5548
" />
<path d="M183.8333 25.5548
L183.4048 26.5548
" />
<path d="M184.1190 25.5548
L184.7857 25.5548
" />
<path d="M184.7857 25.5548
L184.3571 26.5548
" />
</g></g>
<g style="fill:none; 
stroke:#000000; stroke-width:0.1000; stroke-opacity:1; 
stroke-linecap:round; stroke-linejoin:round;">
<path d="M45.0000 42.0000
L45.0000 26.6636
" />
<path d="M322.0000 26.6636
L322.0000 42.0000
" />
<path d="M45.0000 27.2500
L322.0000 27.2500
" />
<path d="M45.0000 27.2500
L46.1265 26.6636
" />
<path d="M45.0000 27.2500
L46.1265 27.8364
" />
<path d="M322.0000 27.2500
L320.8735 27.8364
" />
<path d="M322.0000 27.2500
L320.8735 26.6636
" />
</g>
<g style="fill:none; 
stroke:#000000; stroke-width:0.1500; stroke-opacity:1; 
stroke-linecap:round; stroke-linejoin:round;">
<g transform="rotate(-90.000000 19.1000 95.0000)">
<text x="19.1000" y="95.5000"
textLength="3.1071" font-size="1.3333" lengthAdjust="spacingAndGlyphs"
text-anchor="middle" opacity="0" stroke-opacity="0">105</text>
</g>
<g class="stroked-text"><desc>105</desc>
<path d="M19.5548 95.6667
L19.5548 96.2381
" />
<path d="M19.5548 95.9524
L18.5548 95.9524
" />
<path d="M18.5548 95.9524
L18.6977 96.0476
" />
<path d="M18.6977 96.0476
L18.7929 96.1429
" />
<path d="M18.7929 96.1429
L18.8405 96.2381
" />
<path d="M18.5548 95.0476
L18.5548 94.9524
" />
<path d="M18.5548 94.9524
L18.6024 94.8571
" />
<path d="M18.6024 94.8571
L18.6501 94.8095
" />
<path d="M18.6501 94.8095
L18.7453 94.7619
" />
<path d="M18.7453 94.7619
L18.9358 94.7143
" />
<path d="M18.9358 94.7143
L19.1739 94.7143
" />
<path d="M19.1739 94.7143
L19.3643 94.7619
" />
<path d="M19.3643 94.7619
L19.4596 94.8095
" />
<path d="M19.4596 94.8095
L19.5072 94.8571
" />
<path d="M19.5072 94.8571
L19.5548 94.9524
" />
<path d="M19.5548 94.9524
L19.5548 95.0476
" />
<path d="M19.5548 95.0476
L19.5072 95.1429
" />
<path d="M19.5072 95.1429
L19.4596 95.1905
" />
<path d="M19.4596 95.1905
L19.3643 95.2381
" />
<path d="M19.3643 95.2381
L19.1739 95.2857
" />
<path d="M19.1739 95.2857
L18.9358 95.2857
" />
<path d="M18.9358 95.2857
L18.7453 95.2381
" />
<path d="M18.7453 95.2381
L18.6501 95.1905
" />
<path d="M18.6501 95.1905
L18.6024 95.1429
" />
<path d="M18.6024 95.1429
L18.5548 95.0476
" />
<path d="M18.5548 93.8095
L18.5548 94.2857
" />
<path d="M18.5548 94.2857
L19.0310 94.3333
" />
<path d="M19.0310 94.3333
L18.9834 94.2857
" />
<path d="M18.9834 94.2857
L18.9358 94.1905
" />
<path d="M18.9358 94.1905
L18.9358 93.9524
" />
<path d="M18.9358 93.9524
L18.9834 93.8571
" />
<path d="M18.9834 93.8571
L19.0310 93.8095
" />
<path d="M19.0310 93.8095
L19.1262 93.7619
" />
<path d="M19.1262 93.7619
L19.3643 93.7619
" />
<path d="M19.3643 93.7619
L19.4596 93.8095
" />
<path d="M19.4596 93.8095
L19.5072 93.8571
" />
<path d="M19.5072 93.8571
L19.5548 93.9524
" />
<path d="M19.5548 93.9524
L19.5548 94.1905
" />
<path d="M19.5548 94.1905
L19.5072 94.2857
" />
<path d="M19.5072 94.2857
L19.4596 94.3333
" />
</g></g>
<g style="fill:none; 
stroke:#000000; stroke-width:0.1000; stroke-opacity:1; 
stroke-linecap:round; stroke-linejoin:round;">
<path d="M44.4508 42.5000
L19.6636 42.5000
" />
<path d="M19.6636 147.5000
L41.4508 147.5000
" />
<path d="M20.2500 42.5000
L20.2500 147.5000
" />
<path d="M20.2500 42.5000
L20.8364 43.6265
" />
<path d="M20.2500 42.5000
L19.6636 43.6265
" />
<path d="M20.2500 147.5000
L19.6636 146.3735
" />
<path d="M20.2500 147.5000
L20.8364 146.3735
" />
</g>
<g style="fill:none; 
stroke:#000000; stroke-width:0.1500; stroke-opacity:1; 
stroke-linecap:round; stroke-linejoin:round;">
<text x="140.0000" y="28.8500"
textLength="3.1071" font-size="1.3333" lengthAdjust="spacingAndGlyphs"
text-anchor="middle" opacity="0" stroke-opacity="0">190</text>
<g class="stroked-text"><desc>190</desc>
<path d="M139.3333 28.8048
L138.7619 28.8048
" />
<path d="M139.0476 28.8048
L139.0476 27.8048
" />
<path d="M139.0476 27.8048
L138.9524 27.9477
" />
<path d="M138.9524 27.9477
L138.8571 28.0429
" />
<path d="M138.8571 28.0429
L138.7619 28.0905
" />
<path d="M139.8095 28.8048
L140.0000 28.8048
" />
<path d="M140.0000 28.8048
L140.0952 28.7572
" />
<path d="M140.0952 28.7572
L140.1429 28.7096
" />
<path d="M140.1429 28.7096
L140.2381 28.5667
" />
<path d="M140.2381 28.5667
L140.2857 28.3762
" />
<path d="M140.2857 28.3762
L140.2857 27.9953
" />
<path d="M140.2857 27.9953
L140.2381 27.9001
" />
<path d="M140.2381 27.9001
L140.1905 27.8524
" />
<path d="M140.1905 27.8524
L140.0952 27.8048
" />
<path d="M140.0952 27.8048
L139.9048 27.8048
" />
<path d="M139.9048 27.8048
L139.8095 27.8524
" />
<path d="M139.8095 27.8524
L139.7619 27.9001
" />
<path d="M139.7619 27.9001
L139.7143 27.9953
" />
<path d="M139.7143 27.9953
L139.7143 28.2334
" />
<path d="M139.7143 28.2334
L139.7619 28.3286
" />
<path d="M139.7619 28.3286
L139.8095 28.3762
" />
<path d="M139.8095 28.3762
L139.9048 28.4239
" />
<path d="M139.9048 28.4239
L140.0952 28.4239
" />
<path d="M140.0952 28.4239
L140.1905 28.3762
" />
<path d="M140.1905 28.3762
L140.2381 28.3286
" />
<path d="M140.2381 28.3286
L140.2857 28.2334
" />
<path d="M140.9048 27.8048
L141.0000 27.8048
" />
<path d="M141.0000 27.8048
L141.0952 27.8524
" />
<path d="M141.0952 27.8524
L141.1429 27.9001
" />
<path d="M141.1429 27.9001
L141.1905 27.9953
" />
<path d="M141.1905 27.9953
L141.2381 28.1858
" />
<path d="M141.2381 28.1858
L141.2381 28.4239
" />
<path d="M141.2381 28.4239
L141.1905 28.6143
" />
<path d="M141.1905 28.6143
L141.1429 28.7096
" />
<path d="M141.1429 28.7096
L141.0952 28.7572
" />
<path d="M141.0952 28.7572
L141.0000 28.8048
" />
<path d="M141.0000 28.8048
L140.9048 28.8048
" />
<path d="M140.9048 28.8048
L140.8095 28.7572
" />
<path d="M140.8095 28.7572
L140.7619 28.7096
" />
<path d="M140.7619 28.7096
L140.7143 28.6143
" />
<path d="M140.7143 28.6143
L140.6667 28.4239
" />
<path d="M140.6667 28.4239
L140.6667 28.1858
" />
<path d="M140.6667 28.1858
L140.7143 27.9953
" />
<path d="M140.7143 27.9953
L140.7619 27.9001
" />
<path d="M140.7619 27.9001
L140.8095 27.8524
" />
<path d="M140.8095 27.8524
L140.9048 27.8048
" />
</g></g>
<g style="fill:none; 
stroke:#000000; stroke-width:0.1000; stroke-opacity:1; 
stroke-linecap:round; stroke-linejoin:round;">
<path d="M45.0000 42.0000
L45.0000 28.9136
" />
<path d="M235.0000 28.9136
L235.0000 42.0000
" />
<path d="M45.0000 29.5000
L235.0000 29.5000
" />
<path d="M45.0000 29.5000
L46.1265 28.9136
" />
<path d="M45.0000 29.5000
L46.1265 30.0864
" />
<path d="M235.0000 29.5000
L233.8735 30.0864
" />
<path d="M235.0000 29.5000
L233.8735 28.9136
" />
</g>
<g style="fill:none; 
stroke:#000000; stroke-width:0.1500; stroke-opacity:1; 
stroke-linecap:round; stroke-linejoin:round;">
<text x="52.5000" y="36.3500"
textLength="2.1548" font-size="1.3333" lengthAdjust="spacingAndGlyphs"
text-anchor="middle" opacity="0" stroke-opacity="0">15</text>
<g class="stroked-text"><desc>15</desc>
<path d="M52.3095 36.3048
L51.7381 36.3048
" />
<path d="M52.0238 36.3048
L52.0238 35.3048
" />
<path d="M52.0238 35.3048
L51.9286 35.4477
" />
<path d="M51.9286 35.4477
L51.8333 35.5429
" />
<path d="M51.8333 35.5429
L51.7381 35.5905
" />
<path d="M53.2143 35.3048
L52.7381 35.3048
" />
<path d="M52.7381 35.3048
L52.6905 35.7810
" />
<path d="M52.6905 35.7810
L52.7381 35.7334
" />
<path d="M52.7381 35.7334
L52.8333 35.6858
" />
<path d="M52.8333 35.6858
L53.0714 35.6858
" />
<path d="M53.0714 35.6858
L53.1667 35.7334
" />
<path d="M53.1667 35.7334
L53.2143 35.7810
" />
<path d="M53.2143 35.7810
L53.2619 35.8762
" />
<path d="M53.2619 35.8762
L53.2619 36.1143
" />
<path d="M53.2619 36.1143
L53.2143 36.2096
" />
<path d="M53.2143 36.2096
L53.1667 36.2572
" />
<path d="M53.1667 36.2572
L53.0714 36.3048
" />
<path d="M53.0714 36.3048
L52.8333 36.3048
" />
<path d="M52.8333 36.3048
L52.7381 36.2572
" />
<path d="M52.7381 36.2572
L52.6905 36.2096
" />
</g></g>
<g style="fill:none; 
stroke:#000000; stroke-width:0.1000; stroke-opacity:1; 
stroke-linecap:round; stroke-linejoin:round;">
<path d="M45.0000 42.0000
L45.0000 36.4136
" />
<path d="M60.0000 36.4136
L60.0000 42.0000
" />
<path d="M45.0000 37.0000
L60.0000 37.0000
" />
<path d="M45.0000 37.0000
L46.1265 36.4136
" />
<path d="M45.0000 37.0000
L46.1265 37.5864
" />
<path d="M60.0000 37.0000
L58.8735 37.5864
" />
<path d="M60.0000 37.0000
L58.8735 36.4136
" />
</g>
<g style="fill:none; 
stroke:#000000; stroke-width:0.1500; stroke-opacity:1; 
stroke-linecap:round; stroke-linejoin:round;">
<text x="105.0000" y="30.6000"
textLength="3.1071" font-size="1.3333" lengthAdjust="spacingAndGlyphs"
text-anchor="middle" opacity="0" stroke-opacity="0">120</text>
<g class="stroked-text"><desc>120</desc>
<path d="M104.3333 30.5548
L103.7619 30.5548
" />
<path d="M104.0476 30.5548
L104.0476 29.5548
" />
<path d="M104.0476 29.5548
L103.9524 29.6977
" />
<path d="M103.9524 29.6977
L103.8571 29.7929
" />
<path d="M103.8571 29.7929
L103.7619 29.8405
" />
<path d="M104.7143 29.6501
L104.7619 29.6024
" />
<path d="M104.7619 29.6024
L104.8571 29.5548
" />
<path d="M104.8571 29.5548
L105.0952 29.5548
" />
<path d="M105.0952 29.5548
L105.1905 29.6024
" />
<path d="M105.1905 29.6024
L105.2381 29.6501
" />
<path d="M105.2381 29.6501
L105.2857 29.7453
" />
<path d="M105.2857 29.7453
L105.2857 29.8405
" />
<path d="M105.2857 29.8405
L105.2381 29.9834
" />
<path d="M105.2381 29.9834
L104.6667 30.5548
" />
<path d="M104.6667 30.5548
L105.2857 30.5548
" />
<path d="M105.9048 29.5548
L106.0000 29.5548
" />
<path d="M106.0000 29.5548
L106.0952 29.6024
" />
<path d="M106.0952 29.6024
L106.1429 29.6501
" />
<path d="M106.1429 29.6501
L106.1905 29.7453
" />
<path d="M106.1905 29.7453
L106.2381 29.9358
" />
<path d="M106.2381 29.9358
L106.2381 30.1739
" />
<path d="M106.2381 30.1739
L106.1905 30.3643
" />
<path d="M106.1905 30.3643
L106.1429 30.4596
" />
<path d="M106.1429 30.4596
L106.0952 30.5072
" />
<path d="M106.0952 30.5072
L106.0000 30.5548
" />
<path d="M106.0000 30.5548
L105.9048 30.5548
" />
<path d="M105.9048 30.5548
L105.8095 30.5072
" />
<path d="M105.8095 30.5072
L105.7619 30.4596
" />
<path d="M105.7619 30.4596
L105.7143 30.3643
" />
<path d="M105.7143 30.3643
L105.6667 30.1739
" />
<path d="M105.6667 30.1739
L105.6667 29.9358
" />
<path d="M105.6667 29.9358
L105.7143 29.7453
" />
<path d="M105.7143 29.7453
L105.7619 29.6501
" />
<path d="M105.7619 29.6501
L105.8095 29.6024
" />
<path d="M105.8095 29.6024
L105.9048 29.5548
" />
</g></g>
<g style="fill:none; 
stroke:#000000; stroke-width:0.1000; stroke-opacity:1; 
stroke-linecap:round; stroke-linejoin:round;">
<path d="M45.0000 42.0000
L45.0000 30.6636
" />
<path d="M165.0000 30.6636
L165.0000 40.5000
" />
<path d="M45.0000 31.2500
L165.0000 31.2500
" />
<path d="M45.0000 31.2500
L46.1265 30.6636
" />
<path d="M45.0000 31.2500
L46.1265 31.8364
" />
<path d="M165.0000 31.2500
L163.8735 31.8364
" />
<path d="M165.0000 31.2500
L163.8735 30.6636
" />
</g> 
</svg>
